<svg xmlns="http://www.w3.org/2000/svg" width="1600" height="420" viewBox="0 0 1600 420" role="img" aria-labelledby="title desc">
  <title id="title">AZ-01 Azure Workload Identity Attack and Secretless Federation Lab</title>
  <desc id="desc">Credential risk, controlled attack validation, GitHub OIDC remediation, least privilege, revalidation, teardown, and CI/CD hardening.</desc>
  <defs><linearGradient id="bg" x1="0" y1="0" x2="1" y2="1"><stop offset="0" stop-color="#0b1118"/><stop offset="0.55" stop-color="#111c26"/><stop offset="1" stop-color="#0b1118"/></linearGradient><filter id="glow" x="-30%" y="-30%" width="160%" height="160%"><feGaussianBlur stdDeviation="5" result="b"/><feMerge><feMergeNode in="b"/><feMergeNode in="SourceGraphic"/></feMerge></filter></defs>
  <rect width="1600" height="420" rx="24" fill="url(#bg)"/><rect x="16" y="16" width="1568" height="388" rx="20" fill="none" stroke="#2d8eb8" stroke-width="2" opacity="0.85"/><rect x="25" y="25" width="1550" height="370" rx="16" fill="none" stroke="#163b4d" stroke-width="1"/>
  <text x="54" y="102" fill="#f4f8fb" font-family="Inter,Segoe UI,Arial,sans-serif" font-size="78" font-weight="800">AZ-01</text><text x="58" y="146" fill="#cfe3ec" font-family="Inter,Segoe UI,Arial,sans-serif" font-size="24" font-weight="600">Azure Workload Identity Attack &amp; Secretless Federation Lab</text><text x="58" y="178" fill="#86a2b2" font-family="Inter,Segoe UI,Arial,sans-serif" font-size="18">Controlled identity compromise → secretless federation → bounded authorization validation</text>
  <g font-family="Inter,Segoe UI,Arial,sans-serif" text-anchor="middle"><line x1="330" y1="255" x2="1488" y2="255" stroke="#2d8eb8" stroke-width="4" opacity="0.7"/>
    <g transform="translate(270,0)"><rect x="0" y="210" width="160" height="112" rx="16" fill="#18242e" stroke="#d86b61" stroke-width="2"/><circle cx="80" cy="242" r="13" fill="#d86b61" filter="url(#glow)"/><text x="80" y="280" fill="#ffffff" font-size="17" font-weight="700">CREDENTIAL RISK</text><text x="80" y="304" fill="#a9bbc6" font-size="13">Long-lived secret</text></g><text x="454" y="262" fill="#74c9ea" font-size="27" font-weight="700">→</text>
    <g transform="translate(470,0)"><rect x="0" y="210" width="160" height="112" rx="16" fill="#18242e" stroke="#e49b55" stroke-width="2"/><circle cx="80" cy="242" r="13" fill="#e49b55" filter="url(#glow)"/><text x="80" y="274" fill="#ffffff" font-size="16" font-weight="700">CONTROLLED</text><text x="80" y="294" fill="#ffffff" font-size="16" font-weight="700">ATTACK</text><text x="80" y="314" fill="#a9bbc6" font-size="12">Bounded validation</text></g><text x="654" y="262" fill="#74c9ea" font-size="27" font-weight="700">→</text>
    <g transform="translate(670,0)"><rect x="0" y="210" width="180" height="112" rx="16" fill="#18242e" stroke="#42aee0" stroke-width="2"/><circle cx="90" cy="242" r="13" fill="#42aee0" filter="url(#glow)"/><text x="90" y="274" fill="#ffffff" font-size="15" font-weight="700">SECRETLESS</text><text x="90" y="294" fill="#ffffff" font-size="15" font-weight="700">REMEDIATION</text><text x="90" y="314" fill="#a9bbc6" font-size="12">GitHub OIDC + Entra</text></g><text x="874" y="262" fill="#74c9ea" font-size="27" font-weight="700">→</text>
    <g transform="translate(890,0)"><rect x="0" y="210" width="160" height="112" rx="16" fill="#18242e" stroke="#62c781" stroke-width="2"/><circle cx="80" cy="242" r="13" fill="#62c781" filter="url(#glow)"/><text x="80" y="280" fill="#ffffff" font-size="17" font-weight="700">LEAST PRIVILEGE</text><text x="80" y="304" fill="#a9bbc6" font-size="13">Scoped Azure RBAC</text></g><text x="1074" y="262" fill="#74c9ea" font-size="27" font-weight="700">→</text>
    <g transform="translate(1090,0)"><rect x="0" y="210" width="160" height="112" rx="16" fill="#18242e" stroke="#74c9ea" stroke-width="2"/><circle cx="80" cy="242" r="13" fill="#74c9ea" filter="url(#glow)"/><text x="80" y="280" fill="#ffffff" font-size="17" font-weight="700">REVALIDATION</text><text x="80" y="304" fill="#a9bbc6" font-size="13">Allow + explicit deny</text></g><text x="1274" y="262" fill="#74c9ea" font-size="27" font-weight="700">→</text>
    <g transform="translate(1290,0)"><rect x="0" y="210" width="120" height="112" rx="16" fill="#18242e" stroke="#e49b55" stroke-width="2"/><circle cx="60" cy="242" r="13" fill="#e49b55" filter="url(#glow)"/><text x="60" y="280" fill="#ffffff" font-size="17" font-weight="700">TEARDOWN</text><text x="60" y="304" fill="#a9bbc6" font-size="13">Verified destroy</text></g><text x="1434" y="262" fill="#74c9ea" font-size="27" font-weight="700">→</text>
    <g transform="translate(1450,0)"><rect x="0" y="210" width="120" height="112" rx="16" fill="#18242e" stroke="#62c781" stroke-width="2"/><circle cx="60" cy="242" r="13" fill="#62c781" filter="url(#glow)"/><text x="60" y="277" fill="#ffffff" font-size="15" font-weight="700">CI/CD</text><text x="60" y="297" fill="#ffffff" font-size="15" font-weight="700">HARDENING</text><text x="60" y="316" fill="#a9bbc6" font-size="12">Static security gates</text></g>
  </g>
  <g font-family="Inter,Segoe UI,Arial,sans-serif"><rect x="56" y="345" width="500" height="38" rx="10" fill="#10222c" stroke="#1f566f"/><text x="74" y="370" fill="#a9bbc6" font-size="15">Terraform • Microsoft Entra ID • GitHub OIDC • Azure RBAC • Trivy</text><text x="1542" y="370" text-anchor="end" fill="#62c781" font-size="15" font-weight="700">VALIDATED LAB BASELINE</text></g>
</svg>
